<svg width="382" height="307" viewBox="0 0 382 307" fill="none" xmlns="http://www.w3.org/2000/svg">
<path d="M0 298.09C0 293.165 3.99242 289.172 8.91731 289.172C13.8422 289.172 17.8346 293.165 17.8346 298.09C17.8346 303.015 13.8422 307.007 8.91731 307.007C3.99242 307.007 0 303.015 0 298.09Z" fill="#DFA0C1" fill-opacity="0.32"/>
<path d="M0 240.255C0 235.33 3.99242 231.338 8.91731 231.338C13.8422 231.338 17.8346 235.33 17.8346 240.255C17.8346 245.18 13.8422 249.173 8.91731 249.173C3.99242 249.173 0 245.18 0 240.255Z" fill="#DFA0C1" fill-opacity="0.32"/>
<path d="M0 182.421C0 177.496 3.99242 173.503 8.91731 173.503C13.8422 173.503 17.8346 177.496 17.8346 182.421C17.8346 187.346 13.8422 191.338 8.91731 191.338C3.99242 191.338 0 187.346 0 182.421Z" fill="#DFA0C1" fill-opacity="0.32"/>
<path d="M0 124.586C0 119.661 3.99242 115.669 8.91731 115.669C13.8422 115.669 17.8346 119.661 17.8346 124.586C17.8346 129.511 13.8422 133.504 8.91731 133.504C3.99242 133.504 0 129.511 0 124.586Z" fill="#DFA0C1" fill-opacity="0.32"/>
<path d="M0 66.7519C0 61.827 3.99242 57.8346 8.91731 57.8346C13.8422 57.8346 17.8346 61.827 17.8346 66.7519C17.8346 71.6768 13.8422 75.6692 8.91731 75.6692C3.99242 75.6692 0 71.6768 0 66.7519Z" fill="#DFA0C1" fill-opacity="0.32"/>
<path d="M0 8.9173C0 3.99242 3.99242 0 8.91731 0C13.8422 0 17.8346 3.99242 17.8346 8.9173C17.8346 13.8422 13.8422 17.8346 8.91731 17.8346C3.99242 17.8346 0 13.8422 0 8.9173Z" fill="#DFA0C1" fill-opacity="0.32"/>
<path d="M90.8346 298.09C90.8346 293.165 94.827 289.172 99.7519 289.172C104.677 289.172 108.669 293.165 108.669 298.09C108.669 303.015 104.677 307.007 99.7519 307.007C94.827 307.007 90.8346 303.015 90.8346 298.09Z" fill="#DFA0C1" fill-opacity="0.32"/>
<path d="M90.8346 240.255C90.8346 235.33 94.827 231.338 99.7519 231.338C104.677 231.338 108.669 235.33 108.669 240.255C108.669 245.18 104.677 249.173 99.7519 249.173C94.827 249.173 90.8346 245.18 90.8346 240.255Z" fill="#DFA0C1" fill-opacity="0.32"/>
<path d="M90.8346 182.421C90.8346 177.496 94.827 173.503 99.7519 173.503C104.677 173.503 108.669 177.496 108.669 182.421C108.669 187.346 104.677 191.338 99.7519 191.338C94.827 191.338 90.8346 187.346 90.8346 182.421Z" fill="#DFA0C1" fill-opacity="0.32"/>
<path d="M90.8346 124.586C90.8346 119.661 94.827 115.669 99.7519 115.669C104.677 115.669 108.669 119.661 108.669 124.586C108.669 129.511 104.677 133.504 99.7519 133.504C94.827 133.504 90.8346 129.511 90.8346 124.586Z" fill="#DFA0C1" fill-opacity="0.32"/>
<path d="M90.8346 66.7518C90.8346 61.8269 94.827 57.8345 99.7519 57.8345C104.677 57.8345 108.669 61.8269 108.669 66.7518C108.669 71.6767 104.677 75.6691 99.7519 75.6691C94.827 75.6691 90.8346 71.6767 90.8346 66.7518Z" fill="#DFA0C1" fill-opacity="0.32"/>
<path d="M90.8346 8.9173C90.8346 3.99242 94.827 0 99.7519 0C104.677 0 108.669 3.99242 108.669 8.9173C108.669 13.8422 104.677 17.8346 99.7519 17.8346C94.827 17.8346 90.8346 13.8422 90.8346 8.9173Z" fill="#DFA0C1" fill-opacity="0.32"/>
<path d="M181.669 298.09C181.669 293.165 185.662 289.172 190.587 289.172C195.511 289.172 199.504 293.165 199.504 298.09C199.504 303.015 195.511 307.007 190.587 307.007C185.662 307.007 181.669 303.015 181.669 298.09Z" fill="#DFA0C1" fill-opacity="0.32"/>
<path d="M181.669 240.255C181.669 235.33 185.662 231.338 190.587 231.338C195.511 231.338 199.504 235.33 199.504 240.255C199.504 245.18 195.511 249.173 190.587 249.173C185.662 249.173 181.669 245.18 181.669 240.255Z" fill="#DFA0C1" fill-opacity="0.32"/>
<path d="M181.669 182.421C181.669 177.496 185.662 173.503 190.587 173.503C195.511 173.503 199.504 177.496 199.504 182.421C199.504 187.346 195.511 191.338 190.587 191.338C185.662 191.338 181.669 187.346 181.669 182.421Z" fill="#DFA0C1" fill-opacity="0.32"/>
<path d="M181.669 124.586C181.669 119.661 185.662 115.669 190.587 115.669C195.511 115.669 199.504 119.661 199.504 124.586C199.504 129.511 195.511 133.504 190.587 133.504C185.662 133.504 181.669 129.511 181.669 124.586Z" fill="#DFA0C1" fill-opacity="0.32"/>
<path d="M181.669 66.7518C181.669 61.8269 185.662 57.8345 190.587 57.8345C195.511 57.8345 199.504 61.8269 199.504 66.7518C199.504 71.6767 195.511 75.6691 190.587 75.6691C185.662 75.6691 181.669 71.6767 181.669 66.7518Z" fill="#DFA0C1" fill-opacity="0.32"/>
<path d="M181.669 8.9173C181.669 3.99242 185.662 0 190.587 0C195.511 0 199.504 3.99242 199.504 8.9173C199.504 13.8422 195.511 17.8346 190.587 17.8346C185.662 17.8346 181.669 13.8422 181.669 8.9173Z" fill="#DFA0C1" fill-opacity="0.32"/>
<path d="M272.504 298.09C272.504 293.165 276.496 289.172 281.421 289.172C286.346 289.172 290.338 293.165 290.338 298.09C290.338 303.015 286.346 307.007 281.421 307.007C276.496 307.007 272.504 303.015 272.504 298.09Z" fill="#DFA0C1" fill-opacity="0.32"/>
<path d="M272.504 240.255C272.504 235.33 276.496 231.338 281.421 231.338C286.346 231.338 290.338 235.33 290.338 240.255C290.338 245.18 286.346 249.173 281.421 249.173C276.496 249.173 272.504 245.18 272.504 240.255Z" fill="#DFA0C1" fill-opacity="0.32"/>
<path d="M272.504 182.421C272.504 177.496 276.496 173.503 281.421 173.503C286.346 173.503 290.338 177.496 290.338 182.421C290.338 187.346 286.346 191.338 281.421 191.338C276.496 191.338 272.504 187.346 272.504 182.421Z" fill="#DFA0C1" fill-opacity="0.32"/>
<path d="M272.504 124.586C272.504 119.661 276.496 115.669 281.421 115.669C286.346 115.669 290.338 119.661 290.338 124.586C290.338 129.511 286.346 133.504 281.421 133.504C276.496 133.504 272.504 129.511 272.504 124.586Z" fill="#DFA0C1" fill-opacity="0.32"/>
<path d="M272.504 66.7518C272.504 61.8269 276.496 57.8345 281.421 57.8345C286.346 57.8345 290.338 61.8269 290.338 66.7518C290.338 71.6767 286.346 75.6691 281.421 75.6691C276.496 75.6691 272.504 71.6767 272.504 66.7518Z" fill="#DFA0C1" fill-opacity="0.32"/>
<path d="M272.504 8.9173C272.504 3.99242 276.496 0 281.421 0C286.346 0 290.338 3.99242 290.338 8.9173C290.338 13.8422 286.346 17.8346 281.421 17.8346C276.496 17.8346 272.504 13.8422 272.504 8.9173Z" fill="#DFA0C1" fill-opacity="0.32"/>
<path d="M363.338 298.09C363.338 293.165 367.331 289.172 372.256 289.172C377.181 289.172 381.173 293.165 381.173 298.09C381.173 303.015 377.181 307.007 372.256 307.007C367.331 307.007 363.338 303.015 363.338 298.09Z" fill="#DFA0C1" fill-opacity="0.32"/>
<path d="M363.338 240.255C363.338 235.33 367.331 231.338 372.256 231.338C377.181 231.338 381.173 235.33 381.173 240.255C381.173 245.18 377.181 249.173 372.256 249.173C367.331 249.173 363.338 245.18 363.338 240.255Z" fill="#DFA0C1" fill-opacity="0.32"/>
<path d="M363.338 182.421C363.338 177.496 367.331 173.503 372.256 173.503C377.181 173.503 381.173 177.496 381.173 182.421C381.173 187.346 377.181 191.338 372.256 191.338C367.331 191.338 363.338 187.346 363.338 182.421Z" fill="#DFA0C1" fill-opacity="0.32"/>
<path d="M363.338 124.586C363.338 119.661 367.331 115.669 372.256 115.669C377.181 115.669 381.173 119.661 381.173 124.586C381.173 129.511 377.181 133.504 372.256 133.504C367.331 133.504 363.338 129.511 363.338 124.586Z" fill="#DFA0C1" fill-opacity="0.32"/>
<path d="M363.338 66.7518C363.338 61.8269 367.331 57.8345 372.256 57.8345C377.181 57.8345 381.173 61.8269 381.173 66.7518C381.173 71.6767 377.181 75.6691 372.256 75.6691C367.331 75.6691 363.338 71.6767 363.338 66.7518Z" fill="#DFA0C1" fill-opacity="0.32"/>
<path d="M363.338 8.9173C363.338 3.99242 367.331 0 372.256 0C377.181 0 381.173 3.99242 381.173 8.9173C381.173 13.8422 377.181 17.8346 372.256 17.8346C367.331 17.8346 363.338 13.8422 363.338 8.9173Z" fill="#DFA0C1" fill-opacity="0.32"/>
</svg>
